<svg width="302" height="38" viewBox="0 0 302 38" fill="none" xmlns="http://www.w3.org/2000/svg">
<path d="M0 7.6415L8 5L16 7.6415L24 5L32 7.6415V33L24 30.3585L16 33L8 30.3585L0 33V7.6415Z" fill="#B5CF6B"/>
<mask id="mask0_56_14083" style="mask-type:luminance" maskUnits="userSpaceOnUse" x="34" y="5" width="28" height="28">
<path d="M62 5H34V33H62V5Z" fill="white"/>
</mask>
<g mask="url(#mask0_56_14083)">
<path fill-rule="evenodd" clip-rule="evenodd" d="M48 5H34L48 19H34L48 33H62L48 19H62L48 5Z" fill="#D6616B"/>
</g>
<path fill-rule="evenodd" clip-rule="evenodd" d="M67.6767 19C58.8278 29.589 67.4111 38.1721 78.0002 29.3233C88.5873 38.1721 97.1726 29.5809 88.3236 19C97.1726 8.41101 88.5873 -0.172128 78.0002 8.67669C67.4111 -0.172128 58.8278 8.41101 67.6767 19Z" fill="#7375B5"/>
<path d="M100.28 30V8.88H108.056L112.376 23.888H112.44L116.664 8.88H124.024V30H119.224V14.096H119.16L114.392 30H109.848L105.144 14.096H105.08V30H100.28ZM134.497 30.448C132.897 30.448 131.553 30.224 130.465 29.776C129.398 29.3067 128.534 28.6773 127.873 27.888C127.211 27.0773 126.731 26.16 126.433 25.136C126.155 24.112 126.017 23.0347 126.017 21.904C126.017 20.688 126.166 19.5253 126.465 18.416C126.785 17.3067 127.265 16.3253 127.905 15.472C128.566 14.5973 129.409 13.9147 130.433 13.424C131.478 12.912 132.726 12.656 134.177 12.656C135.627 12.656 136.865 12.912 137.889 13.424C138.934 13.9147 139.766 14.608 140.385 15.504C141.003 16.4 141.398 17.4347 141.569 18.608C141.761 19.7813 141.739 21.0507 141.505 22.416L129.249 22.608V19.792L137.537 19.632L136.865 21.264C136.993 20.2827 136.971 19.4613 136.801 18.8C136.651 18.1173 136.363 17.6053 135.937 17.264C135.51 16.9013 134.923 16.72 134.177 16.72C133.387 16.72 132.758 16.9227 132.289 17.328C131.819 17.7333 131.489 18.3093 131.297 19.056C131.105 19.7813 131.009 20.6453 131.009 21.648C131.009 23.376 131.297 24.6347 131.873 25.424C132.449 26.2133 133.334 26.608 134.529 26.608C135.041 26.608 135.467 26.544 135.809 26.416C136.15 26.288 136.427 26.1067 136.641 25.872C136.854 25.616 137.003 25.3173 137.089 24.976C137.174 24.6133 137.206 24.208 137.185 23.76L141.921 24.016C141.985 24.72 141.91 25.4453 141.697 26.192C141.505 26.9387 141.131 27.632 140.577 28.272C140.022 28.912 139.243 29.4347 138.241 29.84C137.259 30.2453 136.011 30.448 134.497 30.448ZM149.792 30.448C148.576 30.448 147.478 30.1173 146.496 29.456C145.536 28.7947 144.768 27.792 144.192 26.448C143.638 25.104 143.36 23.408 143.36 21.36C143.36 19.4187 143.616 17.808 144.128 16.528C144.64 15.2267 145.366 14.256 146.304 13.616C147.243 12.976 148.342 12.656 149.6 12.656C150.582 12.656 151.446 12.8587 152.192 13.264C152.96 13.6693 153.59 14.3093 154.08 15.184C154.571 16.0587 154.912 17.2 155.104 18.608H155.392C155.286 17.8827 155.179 17.168 155.072 16.464C154.966 15.76 154.88 15.0773 154.816 14.416C154.774 13.7547 154.752 13.136 154.752 12.56V7.6H159.936V24.048V30H155.424V24.784H155.2C154.966 26.0213 154.603 27.0667 154.112 27.92C153.643 28.752 153.046 29.3813 152.32 29.808C151.616 30.2347 150.774 30.448 149.792 30.448ZM151.616 26.32C152.022 26.32 152.416 26.2347 152.8 26.064C153.184 25.872 153.526 25.584 153.824 25.2C154.123 24.816 154.358 24.336 154.528 23.76C154.72 23.184 154.816 22.5013 154.816 21.712V21.488C154.816 20.848 154.752 20.2827 154.624 19.792C154.496 19.28 154.326 18.8533 154.112 18.512C153.899 18.1493 153.654 17.8613 153.376 17.648C153.099 17.4133 152.8 17.2427 152.48 17.136C152.182 17.0293 151.883 16.976 151.584 16.976C150.923 16.976 150.368 17.2 149.92 17.648C149.472 18.096 149.142 18.6827 148.928 19.408C148.715 20.112 148.608 20.88 148.608 21.712C148.608 22.544 148.726 23.312 148.96 24.016C149.195 24.72 149.536 25.2853 149.984 25.712C150.432 26.1173 150.976 26.32 151.616 26.32ZM162.246 30V13.104H167.43V30H162.246ZM164.806 11.888C163.824 11.888 163.067 11.6853 162.534 11.28C162.022 10.8533 161.766 10.2453 161.766 9.456C161.766 8.64533 162.022 8.03733 162.534 7.632C163.067 7.20533 163.824 6.992 164.806 6.992C165.808 6.992 166.566 7.20533 167.078 7.632C167.611 8.05867 167.878 8.66667 167.878 9.456C167.878 10.224 167.611 10.8213 167.078 11.248C166.566 11.6747 165.808 11.888 164.806 11.888ZM174.194 30.448C173.34 30.448 172.53 30.2987 171.762 30C170.994 29.7013 170.364 29.2213 169.874 28.56C169.383 27.8773 169.138 26.9707 169.138 25.84C169.138 24.7947 169.34 23.952 169.746 23.312C170.151 22.6507 170.695 22.128 171.378 21.744C172.06 21.3387 172.807 21.04 173.618 20.848C174.428 20.6347 175.228 20.4533 176.018 20.304C177.127 20.0907 177.959 19.92 178.514 19.792C179.068 19.664 179.442 19.5147 179.634 19.344C179.847 19.1733 179.954 18.9387 179.954 18.64C179.954 18.0213 179.719 17.552 179.25 17.232C178.802 16.912 178.204 16.752 177.458 16.752C176.988 16.752 176.519 16.8373 176.05 17.008C175.58 17.1787 175.196 17.488 174.898 17.936C174.599 18.3627 174.46 18.9813 174.482 19.792L169.874 19.472C169.831 18.128 170.034 17.0187 170.482 16.144C170.93 15.248 171.538 14.5547 172.306 14.064C173.095 13.552 173.948 13.1893 174.866 12.976C175.804 12.7627 176.732 12.656 177.65 12.656C179.335 12.656 180.722 12.976 181.81 13.616C182.898 14.2347 183.698 15.1413 184.21 16.336C184.743 17.5093 185.01 18.9387 185.01 20.624V23.632C185.01 24.336 185.01 25.0507 185.01 25.776C185.01 26.48 185.01 27.184 185.01 27.888C185.01 28.592 185.01 29.296 185.01 30H180.53C180.53 29.232 180.53 28.4533 180.53 27.664C180.53 26.8747 180.53 26.0427 180.53 25.168H180.338C180.252 26.128 179.932 27.0133 179.378 27.824C178.844 28.6133 178.13 29.2533 177.234 29.744C176.359 30.2133 175.346 30.448 174.194 30.448ZM176.338 26.672C176.7 26.672 177.084 26.608 177.49 26.48C177.916 26.3307 178.311 26.096 178.674 25.776C179.058 25.456 179.367 25.0187 179.602 24.464C179.836 23.888 179.954 23.184 179.954 22.352V21.584L180.818 21.488C180.647 21.7653 180.359 21.9893 179.954 22.16C179.57 22.3307 179.132 22.4693 178.642 22.576C178.151 22.6613 177.65 22.7573 177.138 22.864C176.647 22.9493 176.188 23.0773 175.762 23.248C175.335 23.3973 174.983 23.6107 174.706 23.888C174.45 24.144 174.322 24.5067 174.322 24.976C174.322 25.5307 174.514 25.9573 174.898 26.256C175.303 26.5333 175.783 26.672 176.338 26.672ZM198.133 30V8.88H203.317V30H198.133ZM192.917 13.296V8.88H208.533V13.296H192.917ZM209.558 30V20.816V13.104H214.038V19.824H214.294C214.422 18.032 214.668 16.624 215.03 15.6C215.414 14.5547 215.884 13.8187 216.438 13.392C217.014 12.944 217.654 12.72 218.358 12.72C218.742 12.72 219.137 12.7733 219.542 12.88C219.969 12.9867 220.385 13.1573 220.79 13.392L220.534 19.152C220.065 18.8747 219.606 18.672 219.158 18.544C218.71 18.3947 218.284 18.32 217.878 18.32C217.196 18.32 216.62 18.512 216.15 18.896C215.681 19.28 215.318 19.8453 215.062 20.592C214.828 21.3387 214.71 22.2453 214.71 23.312V30H209.558ZM226.288 30.448C225.434 30.448 224.624 30.2987 223.856 30C223.088 29.7013 222.458 29.2213 221.968 28.56C221.477 27.8773 221.232 26.9707 221.232 25.84C221.232 24.7947 221.434 23.952 221.84 23.312C222.245 22.6507 222.789 22.128 223.472 21.744C224.154 21.3387 224.901 21.04 225.712 20.848C226.522 20.6347 227.322 20.4533 228.112 20.304C229.221 20.0907 230.053 19.92 230.608 19.792C231.162 19.664 231.536 19.5147 231.728 19.344C231.941 19.1733 232.048 18.9387 232.048 18.64C232.048 18.0213 231.813 17.552 231.344 17.232C230.896 16.912 230.298 16.752 229.552 16.752C229.082 16.752 228.613 16.8373 228.144 17.008C227.674 17.1787 227.29 17.488 226.992 17.936C226.693 18.3627 226.554 18.9813 226.576 19.792L221.968 19.472C221.925 18.128 222.128 17.0187 222.576 16.144C223.024 15.248 223.632 14.5547 224.4 14.064C225.189 13.552 226.042 13.1893 226.96 12.976C227.898 12.7627 228.826 12.656 229.744 12.656C231.429 12.656 232.816 12.976 233.904 13.616C234.992 14.2347 235.792 15.1413 236.304 16.336C236.837 17.5093 237.104 18.9387 237.104 20.624V23.632C237.104 24.336 237.104 25.0507 237.104 25.776C237.104 26.48 237.104 27.184 237.104 27.888C237.104 28.592 237.104 29.296 237.104 30H232.624C232.624 29.232 232.624 28.4533 232.624 27.664C232.624 26.8747 232.624 26.0427 232.624 25.168H232.432C232.346 26.128 232.026 27.0133 231.472 27.824C230.938 28.6133 230.224 29.2533 229.328 29.744C228.453 30.2133 227.44 30.448 226.288 30.448ZM228.432 26.672C228.794 26.672 229.178 26.608 229.584 26.48C230.01 26.3307 230.405 26.096 230.768 25.776C231.152 25.456 231.461 25.0187 231.696 24.464C231.93 23.888 232.048 23.184 232.048 22.352V21.584L232.912 21.488C232.741 21.7653 232.453 21.9893 232.048 22.16C231.664 22.3307 231.226 22.4693 230.736 22.576C230.245 22.6613 229.744 22.7573 229.232 22.864C228.741 22.9493 228.282 23.0773 227.856 23.248C227.429 23.3973 227.077 23.6107 226.8 23.888C226.544 24.144 226.416 24.5067 226.416 24.976C226.416 25.5307 226.608 25.9573 226.992 26.256C227.397 26.5333 227.877 26.672 228.432 26.672ZM247.311 30.448C245.796 30.448 244.495 30.224 243.407 29.776C242.319 29.3067 241.433 28.6667 240.751 27.856C240.068 27.0453 239.567 26.1173 239.247 25.072C238.927 24.0267 238.767 22.9173 238.767 21.744C238.767 20.5493 238.927 19.4187 239.247 18.352C239.567 17.264 240.057 16.2933 240.719 15.44C241.401 14.5653 242.276 13.8827 243.343 13.392C244.431 12.9013 245.732 12.656 247.247 12.656C249.039 12.656 250.479 12.9973 251.567 13.68C252.676 14.3413 253.444 15.2053 253.871 16.272C254.319 17.3387 254.447 18.4907 254.255 19.728L249.775 20.08C249.817 19.312 249.732 18.6827 249.519 18.192C249.327 17.68 249.028 17.3067 248.623 17.072C248.217 16.816 247.727 16.688 247.151 16.688C246.639 16.688 246.18 16.784 245.775 16.976C245.391 17.168 245.06 17.4667 244.783 17.872C244.527 18.256 244.324 18.7467 244.175 19.344C244.047 19.9413 243.983 20.656 243.983 21.488C243.983 22.5547 244.1 23.472 244.335 24.24C244.591 25.008 244.964 25.5947 245.455 26C245.967 26.4053 246.607 26.608 247.375 26.608C248.164 26.608 248.761 26.416 249.167 26.032C249.572 25.648 249.839 25.168 249.967 24.592C250.095 23.9947 250.116 23.408 250.031 22.832L254.799 23.056C254.927 23.9947 254.884 24.912 254.671 25.808C254.457 26.6827 254.041 27.472 253.423 28.176C252.825 28.88 252.015 29.4347 250.991 29.84C249.988 30.2453 248.761 30.448 247.311 30.448ZM256.465 30V7.6H261.521V19.472C262.246 19.088 262.865 18.6507 263.377 18.16C263.91 17.6693 264.358 17.1467 264.72 16.592C265.083 16.016 265.371 15.44 265.585 14.864C265.819 14.2667 266.011 13.68 266.161 13.104H272.113C271.878 13.9573 271.537 14.7893 271.089 15.6C270.662 16.3893 270.129 17.136 269.489 17.84C268.849 18.5227 268.102 19.1413 267.249 19.696C266.417 20.2507 265.489 20.7093 264.465 21.072V21.328C265.787 21.1147 266.865 21.0933 267.697 21.264C268.55 21.4133 269.222 21.712 269.713 22.16C270.203 22.5867 270.577 23.1307 270.833 23.792C271.11 24.4533 271.323 25.1893 271.472 26L272.208 30H266.609L266.257 27.184C266.171 26.5013 266.054 25.8613 265.905 25.264C265.755 24.6667 265.467 24.1867 265.041 23.824C264.614 23.44 263.942 23.248 263.025 23.248H261.521V30H256.465ZM281.059 30.448C279.459 30.448 278.115 30.224 277.027 29.776C275.96 29.3067 275.096 28.6773 274.435 27.888C273.774 27.0773 273.294 26.16 272.995 25.136C272.718 24.112 272.579 23.0347 272.579 21.904C272.579 20.688 272.728 19.5253 273.027 18.416C273.347 17.3067 273.827 16.3253 274.467 15.472C275.128 14.5973 275.971 13.9147 276.995 13.424C278.04 12.912 279.288 12.656 280.739 12.656C282.19 12.656 283.427 12.912 284.451 13.424C285.496 13.9147 286.328 14.608 286.947 15.504C287.566 16.4 287.96 17.4347 288.131 18.608C288.323 19.7813 288.302 21.0507 288.067 22.416L275.811 22.608V19.792L284.099 19.632L283.427 21.264C283.555 20.2827 283.534 19.4613 283.363 18.8C283.214 18.1173 282.926 17.6053 282.499 17.264C282.072 16.9013 281.486 16.72 280.739 16.72C279.95 16.72 279.32 16.9227 278.851 17.328C278.382 17.7333 278.051 18.3093 277.859 19.056C277.667 19.7813 277.571 20.6453 277.571 21.648C277.571 23.376 277.859 24.6347 278.435 25.424C279.011 26.2133 279.896 26.608 281.091 26.608C281.603 26.608 282.03 26.544 282.371 26.416C282.712 26.288 282.99 26.1067 283.203 25.872C283.416 25.616 283.566 25.3173 283.651 24.976C283.736 24.6133 283.768 24.208 283.747 23.76L288.483 24.016C288.547 24.72 288.472 25.4453 288.259 26.192C288.067 26.9387 287.694 27.632 287.139 28.272C286.584 28.912 285.806 29.4347 284.803 29.84C283.822 30.2453 282.574 30.448 281.059 30.448ZM290.277 30V20.816V13.104H294.757V19.824H295.013C295.141 18.032 295.386 16.624 295.749 15.6C296.133 14.5547 296.602 13.8187 297.157 13.392C297.733 12.944 298.373 12.72 299.077 12.72C299.461 12.72 299.856 12.7733 300.261 12.88C300.688 12.9867 301.104 13.1573 301.509 13.392L301.253 19.152C300.784 18.8747 300.325 18.672 299.877 18.544C299.429 18.3947 299.002 18.32 298.597 18.32C297.914 18.32 297.338 18.512 296.869 18.896C296.4 19.28 296.037 19.8453 295.781 20.592C295.546 21.3387 295.429 22.2453 295.429 23.312V30H290.277Z" fill="#073642"/>
</svg>
